<?xml version="1.0" encoding="utf-8"?>
<!-- Generator: Adobe Illustrator 23.0.6, SVG Export Plug-In . SVG Version: 6.00 Build 0)  -->
<svg version="1.1" xmlns="http://www.w3.org/2000/svg" xmlns:xlink="http://www.w3.org/1999/xlink" x="0px" y="0px"
	 viewBox="0 0 512 512" style="enable-background:new 0 0 512 512;" xml:space="preserve">
<style type="text/css">
	.st0{fill:#FF9900;}
	.st1{display:none;}
	.st2{display:inline;}
	.st3{fill:#FFFFFF;}
	.st4{fill:none;stroke:#FFFFFF;stroke-miterlimit:10;}
</style>
<g id="Layer_2">
</g>
<g id="svg2" xmlns:cc="http://creativecommons.org/ns#" xmlns:dc="http://purl.org/dc/elements/1.1/" xmlns:inkscape="http://www.inkscape.org/namespaces/inkscape" xmlns:rdf="http://www.w3.org/1999/02/22-rdf-syntax-ns#" xmlns:sodipodi="http://sodipodi.sourceforge.net/DTD/sodipodi-0.dtd" xmlns:svg="http://www.w3.org/2000/svg">
	<circle class="st0" cx="252.3" cy="256" r="226"/>
</g>
<g id="Layer_4" class="st1">
	<g id="layer1" transform="translate(0,-540.36218)" class="st2">
		<g id="g3761" transform="translate(27.305402,-44.033375)">
			<path id="path3803" class="st3" d="M394.7,722.1l-76.5,32.5l13.6,12.6L189.1,909.9l-45.6-44.6l-8.9-8.7l-8.8,8.8l-90.1,90.1
				l17.8,17.8l81.3-81.3l45.6,44.6l8.9,8.7l8.8-8.8l152.1-152.1l17.7,16.4L394.7,722.1z"/>
		</g>
	</g>
</g>
<g id="Layer_3" class="st1">
	<g class="st2">
		<path class="st3" d="M208.3,285.9c-22.8-30.8-22.4-58.7,0.7-78.6c20-17.2,50.2-16.4,69.1,1.9c21.6,20.7,21.2,49.1-1.8,76.9
			c34.5,11.2,47.7,42.2,64.9,69.4c5.5,8.7,3.1,17.9-6,21.6c-26.4,10.9-52.3,23.2-81.6,25c-21.7,1.4-42.7-1.4-63.1-8.8
			c-13-4.8-25.9-9.9-38.7-15.2c-11.1-4.6-13.8-13.3-7.6-23.6c5.9-9.8,12.3-19.2,18.1-29C173.2,307.1,188.3,293.7,208.3,285.9z"/>
		<path class="st3" d="M127.1,258.8c-15.4-19.5-17.8-36.6-7.5-54.3c15.8-27,55.8-28.1,72.6-1.7c1.4,2.2,2.1,6.7,0.9,8.6
			c-15.1,23.7-14.4,47.1,0.8,71.3c-28.4,13.8-40.9,41.3-56.5,66.1c-3.3,5.2-6.3,6.7-11.9,4.6c-15.3-5.8-30.8-11.1-46-17.1
			C72.3,333.4,69,326,73,319.9c10.4-16,21.1-31.9,33.1-46.7C111.1,267,119.6,263.8,127.1,258.8z"/>
		<path class="st3" d="M291.2,282.8c15.2-24.4,15.7-47.6,1.3-71.2c-1.4-2.3-0.5-7.4,1.2-9.9c13.4-19.5,40.5-24,59.8-10.3
			c19.3,13.7,24,40.7,10.3,59.9c-1.8,2.5-3.8,4.8-5.7,7.1c0.2,0.5,0.2,1.3,0.5,1.4c27.8,10.9,39.3,36.4,53.4,59.5
			c3.9,6.4,1.1,13.8-6,16.6c-16,6.3-32.3,11.8-48.4,17.8c-4.1,1.5-6.5,0.6-8.7-3.4c-3.1-5.9-7.2-11.2-10.6-17
			C326.4,313.3,313.6,293.8,291.2,282.8z"/>
		<path class="st3" d="M277.2,167c7.9,4.5,15.7,9,23.9,13.7c-6.5,6.8-12.3,12.9-18.6,19.6c-26-19.2-52.8-19.8-77.8-1.3
			c-6.5-6-12.7-11.8-19.9-18.5c7-4.1,14.8-8.8,23.3-13.8c-12.2-12.4-18.9-27.3-16.6-45.3c1.7-13.2,7.7-24.2,18-32.8
			c20.3-17.1,50-15.9,69.1,2.5C299.5,111.5,299.1,138,277.2,167z"/>
	</g>
</g>
<g id="Layer_5" class="st1">
	<g class="st2">
		<path class="st3" d="M289.2,309.9c0,0,55.5,0,60.7,0c29.1,0,52.8-23.6,52.8-52.8s-23.6-52.8-52.8-52.8c-0.1,0-0.3,0-0.4,0
			c0.4-3.3,0.7-6.6,0.7-10c0-44.8-36.3-81.1-81.1-81.1c-34.9,0-64.6,22.1-76,53c-7.3-7.3-17.3-11.8-28.4-11.8
			c-22.2,0-40.1,18-40.1,40.1c0,0.6,0.1,1.1,0.1,1.7c-24.5,6.8-42.5,29.1-42.5,55.7c0,32,25.9,57.9,57.9,57.9c5.5,0,55.6,0,55.6,0"
			/>
		<polyline class="st4" points="275.9,350 242.5,383.4 209.1,350 		"/>
	</g>
</g>
<g id="Layer_6">
	<path class="st3" d="M306,223c-3.5-3-7.1-5.8-10.3-9c-24.6-25.3-16.4-65.6,16.2-79.2c13.3-5.5,27.2-7.6,41.3-3.8
		c14.1,3.8,22.6,13.7,27.7,27.1c5.3,14.1,4.5,27.9-1.8,41.5c-2.7,5.8-5.3,11.6-8,17.4c4.5,1.7,8.9,3.3,13.3,4.9
		c1.1,0.4,2.2,1,3.2,1.5c5.1,2.8,5.8,3.9,4.8,9.6c-3.7,22.6-7.3,45.1-11.4,67.6c-3.1,17.2-7,34.2-10.6,51.3c-0.3,1.2-0.9,2.4-1,3.7
		c-0.6,5-4,6.8-8.4,7c-11.9,0.6-23.8,1.2-35.6,1.3c-6.7,0-13.5-1-20.2-1.9c-4.2-0.6-6.7-3.1-7.5-7.8c-4.2-27.1-8.7-54.2-13-81.3
		c-0.5-2.8-1.5-5-3.7-7c-5.5-5-11-10-15.9-15.5c-4.8-5.5-8.8-11.7-13.3-17.7c-0.4,0.6-0.9,1.2-1.3,1.9c-8,14-16.5,27.7-27.9,39.3
		c-0.8,0.8-1,2.5-1.1,3.8c-2.6,20.4-5,40.8-7.8,61.2c-1,7.2-3.8,13.9-7.6,20.1c-3.2,5.2-7.7,8.6-13.7,9.7
		c-13.2,2.4-26.5,2.9-39.9,1.9c-11.1-0.8-17.7-7.3-20.5-17.6c-2.6-9.7-4.9-19.5-7-29.3c-4.1-19.4-8-38.8-12-58.3
		c-0.7-3.2-0.9-6.5-1.4-9.8c-0.6-4.2,0.8-7.6,4.3-9.7c5.7-3.4,11.6-6.4,17.6-9.4c3-1.5,6.3-2.4,9.9-3.7c-1.2-0.6-2.1-1.1-3-1.6
		c-12.2-6.6-22.5-15.5-24.9-29.7c-3.6-20.8-0.3-40.4,15.4-56.1c6.9-6.9,15.6-10.3,25.1-11.9c13.9-2.3,27.2-0.7,39.7,5.9
		c13.8,7.2,22,18.3,23.6,34.1c0.9,8.3,1.7,16.6,0.4,24.9c-1.8,11.4-8.4,19.9-16.4,27.5c-3,2.8-6.3,5.3-9.8,8.1
		c1.7,1.5,3.5,3.3,5.5,4.7c0.6,0.4,2.4,0,3-0.7c7.8-8.2,15.9-16.2,23-25c8-9.9,15.1-20.5,22.6-30.7c0.2-0.3,0.4-0.6,0.6-0.9
		c4.7-7.3,11.3-7.6,16,0.6c7.6,13.3,16,26.3,24.1,39.3c4.9,7.7,5.9,7.9,14.1,3.6C303.9,224.1,305,223.5,306,223z M195.8,352.4
		c1.1-2.7,1.4-4.6-0.5-6.6c-5.1-5.4-10-10.9-15.1-16.3c-2.3-2.5-2.4-3.3,0.3-6.1c6.1,6.3,12.2,12.6,18.8,19.4
		c0.5-3.9,0.9-7.1,1.3-10.3c0.4-2.6-0.4-4.6-2.1-6.5c-3.9-4.2-7.8-8.5-11.7-12.7c-2.6-2.8-2.7-4.1,0.1-7.3
		c4.9,5.4,9.7,10.8,14.6,16.3c2.2-6.2,3.2-11.9-2.8-16.4c-1.1-0.8-1.9-2-2.8-3c-2.3-2.5-4.6-5-7-7.4c-1.4-1.4-1.1-2.5,0-3.8
		c1.2-1.4,2.3-1,3.4,0.2c1.3,1.3,2.6,2.6,3.8,3.9c3,3.2,6,6.3,9.3,9.8c0.3-1.6,0.5-2.7,0.7-3.7c1.3-10.1,2.5-20.2,3.8-30.2
		c0.2-1.5,0.9-3.2,1.9-4.4c3-3.7,6.1-7.3,9.3-10.8c14.1-16,24-34.2,30.1-54.6c0.4-1.2,0.5-2.5,0.7-3.7c-0.3-0.1-0.6-0.2-0.8-0.3
		c-3.3,4.3-6.6,8.5-9.8,12.8c-10.7,14.5-23.4,27.2-37.6,38.3c-4.7,3.7-5.1,3.7-9.4-0.3c-3.3-3.1-6.4-6.6-9.7-9.7
		c-0.8-0.8-2.3-1.4-3.5-1.2c-3.5,0.3-6.9,1.1-10.3,1.6c-14.2,2-27.9,5.6-41.4,10.4c-3,1.1-4.3,2.8-4.1,5.8c0.2,3,0.3,6,0.7,9
		c3.1,23.2,7.9,46.1,13.7,68.8c1.7,6.8,4.2,13.4,6.5,20c0.8,2.3,2.1,4.5,4.9,5.1c7.2,1.6,14.5,1,22.4,0.5c-3-3.1-5.6-5.8-8.3-8.4
		c-1.3-1.3-0.7-2.3,0.2-3.3c1-1.2,1.8-0.7,2.8,0.1c1.5,1.4,3.3,2.5,4.5,4.1c4.3,5.5,9.8,7.1,16.4,5.9c1-0.2,1.9-0.7,2.8-1.1
		c-0.4-0.9-0.7-2-1.4-2.6c-4.1-3.5-8.4-6.8-12.6-10.2c-1.3-1-2.6-2-3.8-3.1c-1.6-1.4-0.9-2.8,0.1-4.2c1.1-1.5,2.1-0.4,3,0.3
		c1.4,1.1,2.7,2.2,4,3.3C186,344.1,190.8,348.1,195.8,352.4z M263.4,200.1c-1.4,5.8-2.4,11.2-4.1,16.4c-1.3,3.9-0.5,6.6,2,9.7
		c9.7,11.7,20.5,22.4,32.1,32.3c2.6,2.2,4.2,4.8,4.7,8.3c3.6,27.3,7.3,54.6,10.9,81.9c0.3,2.7,1.6,3.4,3.8,3.5
		c4.8,0.3,9.7,0.7,14.5,1c4.1,0.3,8.3,0.5,12.4,0.7c0.1-0.2,0.2-0.5,0.2-0.7c-0.7-0.7-1.4-1.4-2.1-1.9c-3.5-2.7-7-5.6-10.7-8.2
		c-2.1-1.5-2-3.2-0.8-4.9c1.5-2.2,3-0.5,4.1,0.5c4.5,4,9,8.1,13.2,12.4c1.9,1.9,3.8,2.4,6.7,1.7c-0.9-1.3-1.7-2.4-2.6-3.4
		c-5.2-6.4-10.4-12.8-15.6-19.2c-2.2-2.7-2.1-3.3,1.2-5.8c2.9,3.4,5.9,6.9,8.8,10.4c4.6,5.5,9.2,10.9,13.8,16.4
		c1.4,1.6,4,1.6,4.1-0.1c0.3-4,1.5-8.2-1.5-11.9c-6.6-8-13.3-16.1-20-24.1c-1.3-1.6-0.9-3.5,1.1-5.1c1.7-1.5,2.5,0,3.3,1.1
		c5.7,7.4,11.4,14.8,17,22.2c0.6,0.8,1.2,1.5,2.2,2.9c0.7-4.6,1.4-8.5,1.7-12.3c0.1-1.4-0.6-3.1-1.5-4.2c-4.8-6-9.7-11.9-14.6-17.8
		c-2-2.4-1.8-4.4,1.2-7.2c5.5,6.6,10.9,13.3,16.6,20.2c0.6-3,1.1-5.6,1.8-8.2c0.6-2.2,0-3.9-1.4-5.5c-4.1-4.7-8-9.5-12.1-14.3
		c-2.1-2.5-2.2-4.3,0-7.5c5.1,5.9,10.2,11.7,15.6,17.9c1-4.5,1.8-8.7,3-12.8c0.6-2,0-3.3-1.3-4.6c-2.6-2.4-5.2-4.8-7.9-7.2
		c-2.3-2.1-2.4-3.3-0.2-6.2c3.5,3.2,7,6.3,10.8,9.8c0.7-3.4,1.5-6.5,2-9.6c2-10.5,3.9-21,5.8-31.6c0.4-2.1-0.2-3.5-2.3-4.3
		c-4.6-1.6-9.1-3.2-13.7-4.9c-1.9-0.7-3.5-0.3-5.1,0.9c-12.2,9.2-25.1,9.5-38.4,2.8c-1.4-0.7-2.4-0.7-3.7,0.1
		c-6.2,3.5-12.3,7.1-19.6,8c-5.8,0.7-10.4-0.5-13.8-5.6c-6.3-9.6-12.8-19.2-19.3-28.7C264.9,202.2,264.2,201.2,263.4,200.1z
		 M196.8,215.5c0.7-0.8,1.1-1.3,1.6-1.8c2.8-3.5,2.8-3.6,0.3-7.3c-2.7-3.9-5.4-7.8-8.3-11.6c-1.1-1.4-1.2-2.5,0.2-3.7
		c1.5-1.2,2.7-1.3,3.9,0.4c0.9,1.3,1.9,2.5,2.8,3.8c2.3,3.3,4.7,6.7,7.2,10.4c0.5-1.8,1-3.2,1.4-4.6c2.3-9.5,2.6-19.2,2.2-28.9
		c-0.2-5.6-2.1-10.7-5.9-14.7c-10.9-11.4-24.6-16.4-40-15.8c-9.5,0.3-17.3,5.7-24,12.2c-5.2,5.1-9.7,10.9-10.9,18.3
		c-1.8,10.9-0.5,21.5,4,31.7c6.4,14.4,20.6,23.1,37.2,22.8c-3.5-5.5-6.9-10.8-10.6-16.4c1.9-0.8,3.4-1.5,4.9-2.1
		c2.9,4.5,5.6,8.7,8.3,12.9c3.4,5.4,3.4,5.4,9.7,4.1c0.1,0,0.1-0.1,0.8-0.6c-3.9-6.1-7.8-12.3-11.7-18.5c3.2-2.9,3.5-2.9,5.7,0.3
		c3,4.4,6,8.7,8.9,13.2c2.4,3.8,2.8,3.8,6.2,0.8c1.3-1.2,1.6-2.3,0.5-3.7c-0.9-1.2-1.6-2.5-2.4-3.7c-2.9-4.3-5.8-8.6-8.8-12.8
		c3.3-3.1,4.8-3,7,0.4C190.3,205.4,193.4,210.3,196.8,215.5z M338.2,222.1c0.1-0.3,0.3-0.5,0.4-0.8c-0.6-1-1.2-2-1.8-3
		c-2.8-4.3-5.6-8.6-8.4-12.9c-0.7-1.2-2-2.4-0.1-3.7c1.9-1.3,3-0.3,4,1.3c2.5,4,5.1,8,7.6,12.1c3.6,5.8,3.5,5.8,10,3.9
		c0.1,0,0.2-0.3,0.5-0.6c-2.1-3.7-4.3-7.5-6.5-11.3c-2.2-3.8-4.3-7.5-6.5-11.2c4.3-2.5,4.8-2.5,7,1.2c3.5,6,6.9,12,10.5,18.2
		c1.2-1.1,2.2-2.1,3.3-3c1.9-1.5,2.2-3.1,0.8-5.1c-2.3-3.4-4.4-6.9-6.7-10.4c-1.3-2-2.7-4-4-6c1.9-1.8,3.3-1.6,4.6,0.2
		c3.2,4.4,6.4,8.8,9.8,13.3c0.6-0.9,0.9-1.6,1.4-2.2c2.5-3.1,2.5-6,0.2-9.3c-2.7-3.9-5-8.1-7.4-12.2c-0.4-0.6,0-2.3,0.5-2.6
		c0.6-0.4,2.1-0.3,2.8,0.2c1,0.7,1.7,1.9,2.4,3c1.8,2.7,3.6,5.4,5.4,8.1c0.3,0,0.6,0,0.9,0c1-5,2.3-9.9,3-14.9
		c2.2-14.7-4.3-25.8-18.3-30.7c-4.7-1.6-9.7-2.5-14.7-3.1c-12-1.4-22.9,1.1-32,9.5c-15.6,14.3-18,33.4-6,50.2
		c6.1,8.5,14.4,14.2,24.1,17.9C329.4,219.6,333.8,220.7,338.2,222.1z"/>
	<path class="st3" d="M265.8,167c-1.8,0-2.5-0.8-2.5-2.6c0.3-7.9,0.6-15.7,0.8-23.6c0-1.8,1-2.4,2.4-2c0.8,0.2,2,1.2,2,1.7
		c-0.6,8.4-1.5,16.8-2.2,25.1C266.2,166.1,266,166.6,265.8,167z"/>
	<path class="st3" d="M252.9,162.7c-2-7.1-4-14.2-6-21.7c2-0.6,3.8-1.2,6.3-1.9c0.8,7.3,1.7,14.2,2.3,21c0.1,0.9-1.1,1.9-1.6,2.8
		C253.4,162.8,253.1,162.7,252.9,162.7z"/>
	<path class="st3" d="M230,154.6c2.2-1.2,3.9-2.1,6-3.3c2.3,5.7,4.7,11.1,6.8,16.6c0.3,0.7-0.6,1.9-1,2.8c-0.8-0.3-1.8-0.3-2.2-0.9
		C236.5,164.9,233.4,159.9,230,154.6z"/>
</g>
</svg>
