<svg id="Layer_1" data-name="Layer 1" xmlns="http://www.w3.org/2000/svg" viewBox="0 0 513 356.12"><defs><style>.cls-1{fill:#fff;stroke:#fff;stroke-miterlimit:10;}</style></defs><title>menu</title><path class="cls-1" d="M491.32,235.32H20.68a20.68,20.68,0,0,0,0,41.36H491.32a20.68,20.68,0,0,0,0-41.36Z" transform="translate(0.5 -77.94)"/><path class="cls-1" d="M491.32,78.44H20.68a20.68,20.68,0,0,0,0,41.36H491.32a20.68,20.68,0,1,0,0-41.36Z" transform="translate(0.5 -77.94)"/><path class="cls-1" d="M491.32,392.2H20.68a20.68,20.68,0,0,0,0,41.36H491.32a20.68,20.68,0,0,0,0-41.36Z" transform="translate(0.5 -77.94)"/></svg>